<?xml version="1.0" encoding="utf-8"?>
<!-- Generator: Adobe Illustrator 24.0.0, SVG Export Plug-In . SVG Version: 6.00 Build 0)  -->
<svg version="1.1" id="Layer_1" xmlns="http://www.w3.org/2000/svg" xmlns:xlink="http://www.w3.org/1999/xlink" x="0px" y="0px"
	 viewBox="0 0 188.8 442" style="enable-background:new 0 0 188.8 442;" xml:space="preserve">
<style type="text/css">
	.st0{fill:#ffffff;}
	.st0:hover{fill:#555555;}
</style>
<g>
	<path class="st0" d="M150.2,190.4c9.5,46,18.7,90.8,28,136.2c-51.7,0-103,0-155.5,0c1.6-7.9,3.2-15.5,4.8-23.2
		c4.3-20.6,8.8-41.2,12.8-61.9c0.8-4.3,2.7-5.3,6.7-5.5c14.7-0.7,29.3-1.8,43.9-2.7c0.3-1.1,0.6-2.3,0.9-3.4
		c-3.7-1.8-7.2-4.5-11.1-5.3c-16.1-3.4-32.6-5.1-48.4-9.5c-19.5-5.4-24.9-15.4-19.9-35.1c3.2-12.4,8.3-24.3,12.8-36.2
		c4.5-11.8,9.3-23.4,13.9-35.1C43.8,97,52.9,90.7,64.4,87.4c2.4-0.7,5.8,0,8.2,1.2c18.7,9.3,37.2,9.2,56,0c2.7-1.3,6.6-1.4,9.5-0.6
		c11.7,3.3,20,10.5,24.4,22c3.6,9.5,7.6,18.9,11.1,28.5c6.3,17.3,1.5,29.6-14.7,38.3c-4.5,2.4-9.1,4.5-13.4,6.7
		c-0.8-0.7-1.4-1-1.4-1.2c0.1-18.9-17.2-31.5-39-26.1c-6.7,1.7-12.9,5.4-19,8.7c-6.2,3.4-11.5,3.7-17.3-1.3
		c-7.6-6.6-16.4-7.2-24.2-2.4c-7.8,4.8-11,12-9.9,21.1c1,8.4,7.3,15.2,16.6,17.1c22.8,4.5,45.7,10,69.1,5.7
		c6.5-1.2,12.6-4.7,18.7-7.6C142.6,195.7,145.9,193.2,150.2,190.4z"/>
	<path class="st0" d="M100.3,85.8c-22-0.2-39.3-18.1-39-40.4c0.3-21.6,18.1-38.8,40.1-38.6C123,7,140.7,24.9,140.4,46.4
		C140.2,68.6,122.5,86,100.3,85.8z"/>
	<path class="st0" d="M56.7,342.3c13,0,26.2,0,39.9,0c0.2,1.5,0.6,2.9,0.6,4.3c-1,23-1.7,46-3.2,68.9c-1,15.1-12.7,23.1-25.3,18.4
		c-7.1-2.7-10.5-8.2-11.6-15.4c-0.3-1.9-0.3-3.9-0.3-5.8C56.7,389.5,56.7,366.3,56.7,342.3z"/>
	<path class="st0" d="M103,342.4c14.7,0,28,0,42.4,0c0,2.3,0,4.6,0,6.9c-0.4,21.8-0.8,43.7-1.3,65.5c-0.3,12.3-6.9,19.7-17.5,20.1
		c-10.9,0.4-18.4-6-19.3-18.3C105.4,392.3,104.4,367.8,103,342.4z"/>
</g>
</svg>
